<?xml version="1.0" encoding="UTF-8"?>
<svg width="100px" height="50px" viewBox="0 0 100 50" version="1.1" xmlns="http://www.w3.org/2000/svg" xmlns:xlink="http://www.w3.org/1999/xlink">
    <!-- Generator: Sketch 57.1 (83088) - https://sketch.com -->
    <title>partners logos</title>
    <desc>Created with Sketch.</desc>
    <g id="partners-logos" stroke="none" stroke-width="1" fill="none" fill-rule="evenodd">
        <g id="alibaba" transform="translate(15.000000, 21.000000)" fill="#FFFFFF" fill-rule="nonzero">
            <path d="M5.49855072,0 C5.23478261,0.368181818 5.0115942,0.695454545 4.7884058,1.02272727 C4.72753623,1.10454545 4.64637681,1.125 4.56521739,1.14545455 C3.89565217,1.35 3.22608696,1.55454545 2.55652174,1.77954545 C2.02898551,1.92272727 1.78550725,2.25 1.78550725,2.78181818 C1.78550725,3.88636364 1.78550725,5.01136364 1.78550725,6.11590909 C1.78550725,6.64772727 2.04927536,6.975 2.53623188,7.11818182 C3.22608696,7.32272727 3.89565217,7.54772727 4.58550725,7.75227273 C4.64637681,7.77272727 4.72753623,7.77272727 4.76811594,7.83409091 C5.0115942,8.16136364 5.23478261,8.50909091 5.49855072,8.87727273 C5.37681159,8.87727273 5.29565217,8.87727273 5.21449275,8.87727273 C4.28115942,8.87727273 3.32753623,8.87727273 2.3942029,8.87727273 C1.07536232,8.87727273 0.0202898551,7.85454545 0.0202898551,6.50454545 C0,5.13409091 0,3.76363636 0,2.37272727 C0.0202898551,1.02272727 1.05507246,0 2.37391304,0 C3.3884058,0 4.42318841,0 5.49855072,0 Z" id="Path"></path>
            <path d="M8.66376812,0 C8.78550725,0 8.86666667,0 8.92753623,0 C9.86086957,0 10.8144928,0 11.7478261,0 C13.1072464,0 14.142029,1.04318182 14.142029,2.41363636 C14.142029,3.76363636 14.142029,5.11363636 14.142029,6.46363636 C14.142029,7.83409091 13.1072464,8.87727273 11.7275362,8.87727273 C10.7130435,8.87727273 9.71884058,8.87727273 8.64347826,8.87727273 C8.78550725,8.67272727 8.94782609,8.48863636 9.04927536,8.30454545 C9.25217391,7.91590909 9.57681159,7.71136364 10.0028986,7.60909091 C10.5507246,7.48636364 11.0782609,7.28181818 11.6057971,7.11818182 C12.0724638,6.975 12.3362319,6.66818182 12.3565217,6.17727273 C12.3768116,5.01136364 12.3768116,3.84545455 12.3565217,2.7 C12.3565217,2.20909091 12.0927536,1.92272727 11.626087,1.77954545 C10.9362319,1.575 10.2666667,1.35 9.57681159,1.14545455 C9.45507246,1.10454545 9.37391304,1.04318182 9.29275362,0.940909091 C9.11014493,0.634090909 8.90724638,0.347727273 8.66376812,0 Z" id="Path"></path>
            <path d="M21.8318841,8.28409091 C21.1826087,5.85 20.5536232,3.43636364 19.9043478,1.00227273 C19.8434783,0.797727273 19.8434783,0.511363636 19.7014493,0.388636364 C19.5594203,0.265909091 19.2956522,0.368181818 19.1130435,0.347727273 C18.9304348,0.347727273 18.7884058,0.368181818 18.6869565,0.347727273 C18.4637681,0.306818182 18.4028986,0.409090909 18.3623188,0.593181818 C17.9565217,2.10681818 17.5710145,3.6 17.1652174,5.11363636 C16.8811594,6.17727273 16.5971014,7.24090909 16.3130435,8.30454545 C16.2521739,8.48863636 16.2927536,8.55 16.4753623,8.52954545 C16.6782609,8.50909091 16.9014493,8.50909091 17.1246377,8.52954545 C17.2869565,8.55 17.3478261,8.48863636 17.3884058,8.325 C17.5304348,7.73181818 17.7130435,7.13863636 17.8550725,6.54545455 C17.8956522,6.38181818 17.9565217,6.34090909 18.1188406,6.34090909 C18.7681159,6.36136364 19.3971014,6.36136364 20.0463768,6.36136364 C20.2086957,6.36136364 20.2695652,6.40227273 20.3101449,6.56590909 C20.4521739,7.15909091 20.6144928,7.73181818 20.7565217,8.30454545 C20.7971014,8.46818182 20.857971,8.55 21.0405797,8.52954545 C21.2434783,8.50909091 21.4463768,8.50909091 21.6492754,8.52954545 C21.8521739,8.55 21.8927536,8.46818182 21.8318841,8.28409091 Z M19.7826087,5.29772727 L18.342029,5.29772727 C18.2202899,5.29772727 18.1797101,5.27727273 18.2202899,5.13409091 C18.5043478,4.11136364 18.7681159,3.06818182 19.0318841,2.04545455 C19.0521739,2.025 19.0724638,2.04545455 19.0927536,2.04545455 C19.173913,2.35227273 19.2550725,2.65909091 19.3362319,2.96590909 C19.5188406,3.68181818 19.7217391,4.39772727 19.9043478,5.11363636 C19.9449275,5.23636364 19.9449275,5.29772727 19.7826087,5.29772727 Z" id="Shape"></path>
            <path d="M38.773913,2.55681818 C38.3478261,2.61818182 38.0028986,2.80227273 37.6782609,3.06818182 C37.6173913,2.98636364 37.6376812,2.925 37.6376812,2.86363636 L37.6376812,0.572727273 C37.6376812,0.388636364 37.5768116,0.327272727 37.4144928,0.347727273 C37.2115942,0.368181818 37.0086957,0.368181818 36.8057971,0.347727273 C36.6028986,0.327272727 36.542029,0.388636364 36.542029,0.613636364 L36.542029,8.38636364 C36.5217391,8.48863636 36.5826087,8.52954545 36.684058,8.52954545 L37.2521739,8.52954545 C37.6173913,8.52954545 37.6173913,8.52954545 37.6376812,8.12045455 C37.7188406,8.18181818 37.7594203,8.22272727 37.8,8.26363636 C38.4086957,8.71363636 39.0782609,8.81590909 39.7681159,8.46818182 C40.4376812,8.14090909 40.7826087,7.54772727 40.7826087,6.79090909 L40.7826087,4.35681818 C40.7826087,3.29318182 39.8289855,2.43409091 38.773913,2.55681818 Z M39.7275362,6.56590909 C39.7275362,7.17954545 39.2811594,7.65 38.7130435,7.67045455 C38.1449275,7.69090909 37.657971,7.22045455 37.6376812,6.62727273 C37.6173913,5.93181818 37.6173913,5.25681818 37.6376812,4.56136364 C37.657971,3.94772727 38.1246377,3.51818182 38.7130435,3.53863636 C39.3014493,3.55909091 39.7275362,4.00909091 39.7275362,4.62272727 L39.7275362,6.56590909 Z" id="Shape"></path>
            <path d="M69.7362319,0.368181818 C69.4927536,0.388636364 69.2695652,0.388636364 69.0463768,0.368181818 C68.884058,0.368181818 68.8434783,0.409090909 68.8434783,0.572727273 L68.8434783,2.86363636 C68.8434783,2.925 68.884058,3.00681818 68.8028986,3.06818182 C68.7826087,3.04772727 68.742029,3.02727273 68.7217391,3.00681818 C68.0927536,2.49545455 67.4231884,2.39318182 66.7130435,2.74090909 C66.0231884,3.06818182 65.6782609,3.68181818 65.6782609,4.45909091 L65.6782609,6.81136364 C65.6782609,7.56818182 66.0231884,8.14090909 66.6927536,8.46818182 C67.3623188,8.81590909 68.0115942,8.73409091 68.6202899,8.30454545 C68.6811594,8.24318182 68.7217391,8.18181818 68.8231884,8.16136364 C68.8231884,8.20227273 68.8434783,8.24318182 68.8637681,8.28409091 C68.8231884,8.48863636 68.9043478,8.57045455 69.1072464,8.55 C69.3101449,8.52954545 69.4927536,8.52954545 69.6956522,8.55 C69.8985507,8.57045455 69.9391304,8.50909091 69.9391304,8.30454545 L69.9391304,0.572727273 C69.9391304,0.409090909 69.8985507,0.368181818 69.7362319,0.368181818 Z M68.8231884,6.58636364 C68.8231884,7.2 68.3565217,7.67045455 67.7884058,7.69090909 C67.2,7.69090909 66.7536232,7.22045455 66.7333333,6.60681818 L66.7333333,4.62272727 C66.7536232,3.98863636 67.2,3.53863636 67.7884058,3.53863636 C68.3768116,3.53863636 68.8231884,4.00909091 68.8231884,4.64318182 L68.8231884,6.58636364 Z" id="Shape"></path>
            <path d="M30.8811594,4.35681818 C30.8608696,3.27272727 29.9275362,2.45454545 28.8521739,2.57727273 C28.426087,2.63863636 28.0811594,2.82272727 27.7362319,3.10909091 L27.7362319,2.82272727 C27.7362319,2.08636364 27.715942,1.35 27.7362319,0.613636364 C27.7362319,0.409090909 27.6753623,0.347727273 27.4927536,0.368181818 C27.2898551,0.388636364 27.1072464,0.388636364 26.9043478,0.368181818 C26.7014493,0.347727273 26.6608696,0.409090909 26.6608696,0.613636364 L26.6608696,7.875 C26.6608696,8.07954545 26.6,8.36590909 26.7014493,8.48863636 C26.8231884,8.63181818 27.1072464,8.52954545 27.3304348,8.52954545 C27.715942,8.52954545 27.715942,8.52954545 27.7565217,8.16136364 C27.7768116,8.16136364 27.7971014,8.16136364 27.7971014,8.18181818 C27.8376812,8.20227273 27.8782609,8.24318182 27.9188406,8.26363636 C28.5072464,8.71363636 29.1565217,8.79545455 29.826087,8.48863636 C30.4956522,8.18181818 30.8608696,7.62954545 30.8811594,6.87272727 C30.9014493,6.03409091 30.9014493,5.19545455 30.8811594,4.35681818 Z M29.826087,6.58636364 C29.826087,7.17954545 29.3594203,7.67045455 28.7913043,7.67045455 C28.2028986,7.67045455 27.7362319,7.2 27.7362319,6.58636364 L27.7362319,4.60227273 C27.7565217,3.98863636 28.2028986,3.53863636 28.7710145,3.53863636 C29.3594203,3.53863636 29.8057971,3.98863636 29.826087,4.60227273 L29.826087,6.58636364 Z" id="Shape"></path>
            <path d="M49.4666667,4.52045455 C49.4666667,5.07272727 49.4666667,5.625 49.4666667,6.15681818 C49.4666667,6.89318182 50.0347826,7.52727273 50.7043478,7.56818182 C51.515942,7.60909091 52.1449275,7.11818182 52.226087,6.32045455 C52.2463768,6.17727273 52.2869565,6.13636364 52.4289855,6.15681818 C52.6724638,6.15681818 52.915942,6.17727273 53.1594203,6.15681818 C53.3014493,6.15681818 53.3217391,6.19772727 53.3217391,6.34090909 C53.2405797,7.34318182 52.7536232,8.07954545 51.8405797,8.46818182 C50.8869565,8.87727273 49.973913,8.71363636 49.2028986,8.01818182 C48.6550725,7.54772727 48.4115942,6.91363636 48.4115942,6.19772727 C48.4115942,5.09318182 48.4115942,3.98863636 48.4115942,2.88409091 C48.4115942,1.575 49.3449275,0.531818182 50.6231884,0.388636364 C51.8811594,0.245454545 53.0376812,1.10454545 53.3014493,2.37272727 C53.4028986,2.88409091 53.4028986,2.88409091 52.8956522,2.88409091 C52.8753623,2.88409091 52.8550725,2.88409091 52.8144928,2.88409091 C52.6521739,2.88409091 52.4695652,2.925 52.3275362,2.86363636 C52.1652174,2.80227273 52.2463768,2.57727273 52.2057971,2.43409091 C51.9826087,1.77954545 51.3333333,1.37045455 50.6637681,1.47272727 C50.0144928,1.575 49.4869565,2.14772727 49.4869565,2.82272727 C49.4666667,3.375 49.4666667,3.94772727 49.4666667,4.52045455 Z" id="Path"></path>
            <path d="M45.6521739,4.11136364 C45.4086957,3.17045455 44.5971014,2.53636364 43.6231884,2.51590909 C42.6898551,2.49545455 41.8376812,3.15 41.573913,4.05 C41.5333333,4.19318182 41.5333333,4.29545455 41.7362319,4.275 C41.9391304,4.25454545 42.1623188,4.25454545 42.3652174,4.275 C42.5275362,4.29545455 42.5884058,4.23409091 42.6492754,4.09090909 C42.8724638,3.51818182 43.4811594,3.27272727 44.0289855,3.51818182 C44.4956522,3.72272727 44.6782609,4.11136364 44.657971,4.76590909 C44.657971,4.92954545 44.5971014,4.95 44.4753623,4.95 L43.1362319,4.95 C42.1217391,4.95 41.3304348,5.76818182 41.3304348,6.77045455 C41.3304348,7.81363636 42.1014493,8.61136364 43.115942,8.65227273 C43.684058,8.67272727 44.1913043,8.52954545 44.6376812,8.12045455 C44.657971,8.52954545 44.657971,8.52954545 45.0028986,8.50909091 C45.1652174,8.50909091 45.3072464,8.48863636 45.4695652,8.50909091 C45.6724638,8.52954545 45.7333333,8.46818182 45.7333333,8.26363636 L45.7333333,4.725 C45.7333333,4.52045455 45.6927536,4.31590909 45.6521739,4.11136364 Z M43.9072464,7.62954545 C43.3391304,7.875 42.6695652,7.60909091 42.4666667,7.05681818 C42.2637681,6.50454545 42.6289855,5.85 43.2173913,5.80909091 C43.6434783,5.76818182 44.0695652,5.78863636 44.4956522,5.78863636 C44.6173913,5.78863636 44.6376812,5.82954545 44.6376812,5.93181818 L44.6376812,6.3 C44.6782609,6.87272727 44.4753623,7.36363636 43.9072464,7.62954545 Z" id="Shape"></path>
            <path d="M33.7826087,2.55681818 C32.8289855,2.475 31.8550725,3.19090909 31.6318841,4.13181818 C31.6115942,4.25454545 31.6115942,4.31590909 31.773913,4.31590909 C31.9768116,4.29545455 32.2,4.29545455 32.4231884,4.31590909 C32.5855072,4.33636364 32.6463768,4.275 32.7072464,4.13181818 C32.8695652,3.72272727 33.1942029,3.47727273 33.6202899,3.45681818 C34.0463768,3.41590909 34.3710145,3.64090909 34.5942029,4.00909091 C34.715942,4.23409091 34.6956522,4.47954545 34.715942,4.725 C34.7362319,4.90909091 34.6753623,4.97045455 34.4927536,4.97045455 C34.0463768,4.95 33.6202899,4.97045455 33.173913,4.97045455 C32.2608696,4.97045455 31.4898551,5.68636364 31.3884058,6.60681818 C31.2869565,7.54772727 31.915942,8.42727273 32.8086957,8.61136364 C33.4985507,8.75454545 34.1275362,8.65227273 34.6956522,8.14090909 C34.7565217,8.50909091 34.7565217,8.50909091 35.1014493,8.52954545 C35.2637681,8.52954545 35.426087,8.50909091 35.5884058,8.52954545 C35.7710145,8.55 35.8115942,8.48863636 35.8115942,8.30454545 L35.8115942,4.74545455 C35.8115942,3.55909091 34.9594203,2.63863636 33.7826087,2.55681818 Z M34.6347826,6.91363636 C34.4724638,7.38409091 34.1275362,7.65 33.6405797,7.71136364 C33.2144928,7.77272727 32.8695652,7.60909091 32.626087,7.26136364 C32.2202899,6.66818182 32.6057971,5.85 33.3362319,5.80909091 C33.5391304,5.76818182 33.742029,5.78863636 33.9449275,5.78863636 L34.5536232,5.78863636 C34.6347826,5.78863636 34.715942,5.78863636 34.6956522,5.89090909 C34.6753623,6.23863636 34.7565217,6.58636364 34.6347826,6.91363636 Z" id="Shape"></path>
            <path d="M63.8318841,8.12045455 C63.1826087,8.67272727 62.5130435,8.83636364 61.7623188,8.50909091 C61.0521739,8.20227273 60.6869565,7.60909091 60.6666667,6.83181818 C60.6463768,5.46136364 60.6666667,4.11136364 60.6666667,2.74090909 C60.6666667,2.59772727 60.7072464,2.55681818 60.8492754,2.55681818 C61.0724638,2.55681818 61.2956522,2.57727273 61.4985507,2.55681818 C61.7014493,2.53636364 61.7623188,2.59772727 61.7623188,2.80227273 C61.7623188,4.07045455 61.7623188,5.33863636 61.7623188,6.60681818 C61.7623188,7.22045455 62.1884058,7.69090909 62.7768116,7.69090909 C63.3855072,7.69090909 63.8318841,7.24090909 63.8318841,6.62727273 C63.8318841,5.35909091 63.8318841,4.09090909 63.8318841,2.82272727 C63.8318841,2.59772727 63.8927536,2.51590909 64.115942,2.53636364 C64.3797101,2.57727273 64.7246377,2.41363636 64.8869565,2.59772727 C65.0492754,2.76136364 64.9275362,3.08863636 64.9275362,3.35454545 C64.9275362,4.99090909 64.9275362,6.64772727 64.9275362,8.28409091 C64.9275362,8.48863636 64.8666667,8.55 64.6637681,8.52954545 C64.4608696,8.50909091 64.2782609,8.50909091 64.0753623,8.52954545 C63.8724638,8.55 63.7913043,8.48863636 63.8115942,8.28409091 C63.8318841,8.24318182 63.8318841,8.20227273 63.8318841,8.12045455 Z" id="Path"></path>
            <path d="M58.0695652,2.57727273 C56.9333333,2.45454545 55.9594203,3.10909091 55.715942,4.19318182 C55.6144928,4.66363636 55.715942,5.13409091 55.6956522,5.60454545 C55.6956522,6.03409091 55.6550725,6.48409091 55.6956522,6.91363636 C55.857971,8.01818182 56.8724638,8.75454545 58.0289855,8.65227273 C59.0434783,8.57045455 59.8956522,7.62954545 59.8956522,6.56590909 L59.8956522,4.68409091 C59.8956522,3.62045455 59.084058,2.67954545 58.0695652,2.57727273 Z M58.8405797,6.58636364 C58.8202899,7.13863636 58.3333333,7.56818182 57.7855072,7.54772727 C57.2376812,7.52727273 56.7913043,7.07727273 56.7913043,6.525 C56.7507246,6.21818182 56.7710145,5.89090909 56.7710145,5.58409091 L56.7710145,4.64318182 C56.7710145,4.11136364 57.2173913,3.64090909 57.7652174,3.62045455 C58.3130435,3.6 58.8202899,4.02954545 58.8405797,4.58181818 C58.8608696,5.25681818 58.8608696,5.93181818 58.8405797,6.58636364 Z" id="Shape"></path>
            <path d="M22.4,4.43863636 C22.4,3.17045455 22.4,1.90227273 22.4,0.634090909 C22.4,0.388636364 22.4608696,0.327272727 22.7043478,0.347727273 C22.8869565,0.368181818 23.0695652,0.368181818 23.2724638,0.347727273 C23.4550725,0.327272727 23.515942,0.388636364 23.515942,0.593181818 C23.4956522,1.47272727 23.515942,2.35227273 23.515942,3.25227273 C23.515942,4.92954545 23.515942,6.60681818 23.515942,8.28409091 C23.515942,8.50909091 23.4550725,8.57045455 23.2521739,8.55 C23.0492754,8.52954545 22.8666667,8.52954545 22.6637681,8.55 C22.4811594,8.57045455 22.4202899,8.50909091 22.4202899,8.30454545 C22.4,6.99545455 22.4,5.72727273 22.4,4.43863636 Z" id="Path"></path>
            <path d="M53.8492754,4.45909091 C53.8492754,3.17045455 53.8492754,1.88181818 53.8492754,0.593181818 C53.8492754,0.409090909 53.8898551,0.347727273 54.0724638,0.368181818 C54.3971014,0.409090909 54.6811594,0.306818182 54.8231884,0.368181818 C54.8637681,0.388636364 54.884058,0.429545455 54.9043478,0.470454545 C54.9246377,0.613636364 54.9246377,1.00227273 54.9246377,1.22727273 C54.9246377,3.57954545 54.9246377,5.93181818 54.9246377,8.28409091 C54.9246377,8.48863636 54.884058,8.57045455 54.6811594,8.55 C54.4782609,8.52954545 54.2753623,8.52954545 54.0724638,8.55 C53.8898551,8.57045455 53.8492754,8.50909091 53.8492754,8.325 C53.8492754,7.01590909 53.8492754,5.74772727 53.8492754,4.45909091 Z" id="Path"></path>
            <path d="M25.6057971,5.54318182 C25.6057971,6.46363636 25.6057971,7.38409091 25.6057971,8.325 C25.6057971,8.48863636 25.5652174,8.55 25.3826087,8.55 C25.1797101,8.52954545 24.9565217,8.52954545 24.7536232,8.55 C24.5710145,8.57045455 24.5304348,8.50909091 24.5304348,8.325 C24.5304348,7.13863636 24.5304348,5.95227273 24.5304348,4.76590909 C24.5304348,4.09090909 24.5304348,3.41590909 24.5304348,2.76136364 C24.5304348,2.59772727 24.5710145,2.55681818 24.7333333,2.55681818 C24.9565217,2.57727273 25.1797101,2.57727273 25.3826087,2.55681818 C25.5449275,2.53636364 25.6057971,2.59772727 25.6057971,2.78181818 C25.5855072,3.68181818 25.6057971,4.60227273 25.6057971,5.54318182 Z" id="Path"></path>
            <path d="M7.06086957,4.95 C6.35072464,4.95 5.64057971,4.95 4.91014493,4.95 C4.72753623,4.95 4.68695652,4.90909091 4.68695652,4.725 C4.70724638,4.47954545 4.68695652,4.25454545 4.68695652,4.00909091 C4.68695652,3.88636364 4.72753623,3.84545455 4.84927536,3.84545455 C6.33043478,3.84545455 7.79130435,3.84545455 9.27246377,3.84545455 C9.37391304,3.84545455 9.41449275,3.88636364 9.41449275,3.98863636 C9.41449275,4.23409091 9.3942029,4.47954545 9.41449275,4.725 C9.41449275,4.88863636 9.37391304,4.92954545 9.2115942,4.92954545 C8.52173913,4.95 7.79130435,4.95 7.06086957,4.95 Z" id="Path"></path>
            <path d="M24.5304348,0.9 C24.5304348,0.368181818 24.5304348,0.368181818 25.057971,0.368181818 C25.5855072,0.368181818 25.5855072,0.368181818 25.5855072,0.9 C25.5855072,1.43181818 25.5855072,1.43181818 25.057971,1.43181818 C24.5304348,1.43181818 24.5304348,1.43181818 24.5304348,0.9 Z" id="Path"></path>
        </g>
    </g>
</svg>