<?xml version="1.0" encoding="UTF-8"?>
<svg width="100px" height="50px" viewBox="0 0 100 50" version="1.1" xmlns="http://www.w3.org/2000/svg" xmlns:xlink="http://www.w3.org/1999/xlink">
    <!-- Generator: Sketch 57.1 (83088) - https://sketch.com -->
    <title>partners logos</title>
    <desc>Created with Sketch.</desc>
    <g id="partners-logos" stroke="none" stroke-width="1" fill="none" fill-rule="evenodd">
        <g id="cai" transform="translate(23.000000, 16.000000)" fill="#FFFFFF" fill-rule="nonzero">
            <path d="M0.0520622042,18.9219178 C0.0520622042,16.5794521 0.0520622042,14.2369863 0.0520622042,11.8815068 C0.0520622042,11.2958904 0.0520622042,10.6972603 0.0650777552,10.1116438 C0.403482082,10.1116438 0.74188641,10.1116438 1.09330629,10.0986301 C1.26250845,10.0856164 1.37964841,10.1506849 1.49678837,10.2808219 C3.25388776,12.4020548 5.01098715,14.510274 6.76808654,16.6184932 C6.8331643,16.6965753 6.89824206,16.7616438 6.96331981,16.839726 C7.02839757,16.7486301 7.00236646,16.6705479 7.00236646,16.5924658 C7.00236646,14.510274 7.00236646,12.4280822 7.00236646,10.3458904 C7.00236646,10.1506849 7.04141312,10.0856164 7.24966193,10.0986301 C7.54901961,10.1246575 7.83536173,10.1116438 8.13471941,10.0986301 C8.26487492,10.0986301 8.31693712,10.1376712 8.30392157,10.2678082 C8.29090602,10.3719178 8.30392157,10.4760274 8.30392157,10.580137 C8.30392157,13.2739726 8.30392157,15.9678082 8.30392157,18.6616438 C8.30392157,18.8568493 8.26487492,18.9219178 8.0566261,18.9089041 C7.70520622,18.8828767 7.31473969,19 7.02839757,18.869863 C6.74205544,18.739726 6.55983773,18.3753425 6.33857336,18.1020548 C4.72464503,16.1760274 3.12373225,14.2369863 1.50980392,12.3109589 C1.47075727,12.2589041 1.41869506,12.2068493 1.34060176,12.1157534 C1.34060176,12.2458904 1.34060176,12.3239726 1.34060176,12.4020548 C1.34060176,14.4842466 1.34060176,16.5664384 1.34060176,18.6486301 C1.34060176,18.8828767 1.275524,18.9219178 1.06727519,18.9089041 C0.715855308,18.9089041 0.390466531,18.9219178 0.0520622042,18.9219178 Z" id="Path"></path>
            <path d="M0,3.8390411 C0.0911088573,3.64383562 0.0780933063,3.43561644 0.13015551,3.22739726 C0.533637593,1.43150685 2.12153482,0.0910958904 3.91768087,0.0260273973 C5.83096687,-0.0520547945 7.50997295,1.10616438 8.06964165,2.8890411 C8.14773496,3.14931507 8.14773496,3.14931507 7.87440838,3.14931507 C7.57505071,3.14931507 7.26267748,3.13630137 6.96331981,3.14931507 C6.8331643,3.14931507 6.7811021,3.11027397 6.72903989,2.99315068 C6.26048005,2.00410959 5.47954699,1.44452055 4.39925625,1.31438356 C2.99357674,1.15821918 1.58789723,2.21232877 1.36663286,3.61780822 C1.275524,4.24246575 1.2494929,4.86712329 1.43171062,5.49178082 C1.74408384,6.6109589 2.74628127,7.44383562 3.87863421,7.52191781 C5.11511156,7.6130137 6.2214334,6.98835616 6.71602434,5.89520548 C6.7811021,5.75205479 6.84617985,5.6869863 7.01538201,5.7 C7.32775524,5.7130137 7.64012847,5.7130137 7.95250169,5.7 C8.1086883,5.7 8.16075051,5.7130137 8.1086883,5.89520548 C7.65314402,7.43082192 6.26048005,8.62808219 4.65956728,8.79726027 C2.4729547,9.03150685 0.585699797,7.67808219 0.117139959,5.55684932 C0.0780933063,5.36164384 0.0650777552,5.16643836 0.0390466531,4.97123288 C0.013015551,4.69794521 0.0390466531,4.41164384 0.0260311021,4.13835616 C0.0260311021,4.06027397 0.0520622042,3.98219178 0,3.91712329 C0,3.89109589 0,3.86506849 0,3.8390411 Z" id="Path"></path>
            <path d="M34.1397904,13.7034247 C33.775355,10.6321918 30.1960784,9.07054795 27.6840771,10.8664384 C26.4475997,11.7513699 25.9009466,12.9876712 25.9660243,14.4972603 C25.9660243,14.7575342 25.9399932,15.0308219 25.9660243,15.2910959 C26.1872887,17.1130137 27.5929682,18.5835616 29.3760987,18.869863 C31.2112914,19.1561644 33.0074375,18.2191781 33.7883705,16.540411 C34.2308993,15.6424658 34.2569304,14.6664384 34.1397904,13.7034247 Z M32.00524,16.8527397 C31.1201826,17.6726027 30.0659229,17.8808219 28.9596011,17.4123288 C27.8532792,16.9438356 27.280595,16.0589041 27.2285328,14.8616438 C27.2025017,14.380137 27.2025017,13.9116438 27.3456728,13.4431507 C27.7491548,12.1027397 29.0116633,11.2828767 30.4433739,11.4390411 C31.744929,11.5821918 32.7991886,12.7143836 32.8772819,14.0678082 C32.8902975,14.2239726 32.8772819,14.380137 32.8772819,14.510274 C32.9293442,15.4342466 32.6820487,16.2280822 32.00524,16.8527397 Z" id="Shape"></path>
            <path d="M24.6254226,18.9219178 C24.2089249,18.9219178 23.7924273,18.9219178 23.3759297,18.9219178 C23.2327586,18.9219178 23.2197431,18.8178082 23.193712,18.739726 C22.6340433,17.2821918 22.061359,15.8246575 21.5016903,14.3671233 C21.2153482,13.6123288 20.9159905,12.8575342 20.6296484,12.1027397 C20.6036173,12.0376712 20.5906018,11.959589 20.5125085,11.8945205 C20.1350575,12.8835616 19.7445909,13.8726027 19.36714,14.8486301 C19.0417512,15.6945205 18.7163624,16.540411 18.3909736,17.3863014 C18.2998648,17.6335616 18.2998648,17.6335616 18.5471602,17.6335616 C19.4322177,17.6335616 20.3042596,17.6335616 21.1893171,17.6335616 C21.3455037,17.6335616 21.4105815,17.6856164 21.4626437,17.8287671 C21.5927992,18.180137 21.7359703,18.5315068 21.8791413,18.9089041 C20.0569642,18.9089041 18.2478026,18.9089041 16.4256254,18.9089041 C16.4907032,18.7527397 16.5427654,18.5835616 16.6078431,18.4273973 C17.6490872,15.7335616 18.6903313,13.0267123 19.7315754,10.3328767 C19.7966531,10.1636986 19.8747465,10.0986301 20.0569642,10.1116438 C20.408384,10.1246575 20.7598039,10.1246575 21.0982082,10.1116438 C21.2023327,10.1116438 21.2543949,10.1246575 21.3064571,10.2417808 C22.4127789,13.1178082 23.5191007,15.9808219 24.6254226,18.8438356 C24.6254226,18.8568493 24.6254226,18.8828767 24.6254226,18.9219178 Z" id="Path"></path>
            <path d="M50.8908046,15.2910959 C50.0578093,15.2910959 49.2248141,15.2910959 48.3918188,15.2910959 C47.9753212,15.2910959 47.8191346,15.1349315 47.8191346,14.7184932 C47.8191346,13.4171233 47.8191346,12.1287671 47.8191346,10.8273973 C47.8191346,10.6582192 47.8581812,10.5931507 48.0403989,10.5931507 C48.7302231,10.6061644 49.4200473,10.5931507 50.1098715,10.6061644 C50.2790737,10.6061644 50.3441515,10.5541096 50.3181204,10.3849315 C50.2790737,10.1636986 50.357167,10.059589 50.5914469,10.0986301 C50.6565247,10.1116438 50.7216024,10.0986301 50.7996957,10.0986301 C51.1641312,10.0986301 51.1771467,10.0986301 51.2031778,10.4630137 C51.2161934,10.6321918 51.3073022,10.5931507 51.3984111,10.5931507 C52.1012508,10.5931507 52.7910751,10.5931507 53.4939148,10.5931507 C53.6501014,10.5931507 53.7021636,10.6191781 53.7021636,10.7883562 C53.6891481,11.5691781 53.6891481,12.35 53.7021636,13.1308219 C53.7021636,13.2739726 53.663117,13.3260274 53.5329615,13.3780822 C53.3507437,13.4431507 53.168526,13.5082192 52.9863083,13.5863014 C52.8561528,13.6383562 52.8171062,13.6123288 52.8171062,13.4691781 C52.8171062,12.8835616 52.8171062,12.2849315 52.8301217,11.6993151 C52.8301217,11.5171233 52.7780595,11.4780822 52.5958418,11.4780822 C51.3853955,11.4910959 50.1749493,11.4910959 48.964503,11.4780822 C48.7822853,11.4780822 48.7302231,11.5171233 48.7302231,11.6993151 C48.7432387,12.5321918 48.7432387,13.3650685 48.7302231,14.1979452 C48.7302231,14.3671233 48.7692698,14.4191781 48.9514875,14.4191781 C50.7476335,14.4191781 52.5437796,14.4191781 54.3399256,14.4061644 C54.5351589,14.4061644 54.5742055,14.4582192 54.5742055,14.640411 C54.56119,15.889726 54.56119,17.1390411 54.5742055,18.3883562 C54.5742055,18.5445205 54.5221433,18.609589 54.3789723,18.6616438 C54.1967546,18.7136986 54.0275524,18.7917808 53.8453347,18.869863 C53.7151792,18.9219178 53.6761325,18.8958904 53.6761325,18.7527397 C53.6891481,18.2061644 53.6761325,17.6465753 53.6761325,17.1 C53.6761325,16.5664384 53.6761325,16.0458904 53.6761325,15.5123288 C53.6761325,15.3431507 53.6370859,15.2910959 53.4678837,15.2910959 C52.5958418,15.2910959 51.7368154,15.2910959 50.8908046,15.2910959 Z" id="Path"></path>
            <path d="M38.5130156,18.9219178 C38.6301555,18.6226027 38.7342799,18.3493151 38.8384043,18.0760274 C39.020622,17.6075342 39.1898242,17.1390411 39.3850575,16.6835616 C39.4371197,16.5534247 39.4110886,16.5143836 39.2679175,16.5143836 C38.9555443,16.5273973 38.6561866,16.5143836 38.3177823,16.5143836 C38.4219067,16.2410959 38.5260311,15.9808219 38.61714,15.7335616 C38.6561866,15.6034247 38.760311,15.6424658 38.8384043,15.6424658 C39.6974307,15.6424658 40.5694726,15.6424658 41.428499,15.6424658 C41.5977011,15.6424658 41.7148411,15.6164384 41.6757945,15.4082192 C41.6627789,15.2910959 41.7148411,15.2650685 41.8189655,15.2650685 C42.0011832,15.2650685 42.1834009,15.2780822 42.3656187,15.2650685 C42.5087897,15.2520548 42.586883,15.2910959 42.5608519,15.4472603 C42.5348208,15.6034247 42.6129141,15.6294521 42.7560852,15.6294521 C43.6281271,15.6294521 44.500169,15.6294521 45.372211,15.6164384 C45.5414131,15.6164384 45.6064909,15.6684932 45.6585531,15.8246575 C45.7236308,16.0458904 45.8277552,16.2541096 45.9188641,16.5013699 C45.5283976,16.5013699 45.1769777,16.5013699 44.7995267,16.5013699 C44.8255578,16.709589 44.9296822,16.8787671 44.99476,17.0479452 C45.2160243,17.6075342 45.4372887,18.180137 45.6585531,18.739726 C45.7106153,18.869863 45.7106153,18.9219178 45.5414131,18.9219178 C45.3331643,18.9089041 45.137931,18.9089041 44.9296822,18.9219178 C44.7995267,18.9349315 44.7474645,18.869863 44.7084178,18.7527397 C44.4350913,18.0630137 44.1617647,17.3732877 43.9014537,16.6835616 C43.8493915,16.540411 43.7843137,16.5013699 43.6411427,16.5013699 C43.3548005,16.5143836 43.0684584,16.5143836 42.7821163,16.5013699 C42.6259297,16.4883562 42.5738675,16.540411 42.5738675,16.6965753 C42.586883,17.360274 42.5738675,18.0239726 42.586883,18.7006849 C42.586883,18.869863 42.5348208,18.9219178 42.3656187,18.9089041 C42.209432,18.8958904 42.0402299,18.8958904 41.8840433,18.9089041 C41.7148411,18.9219178 41.68881,18.8568493 41.68881,18.7006849 C41.7018256,18.0369863 41.68881,17.3732877 41.7018256,16.6965753 C41.7018256,16.540411 41.6627789,16.4883562 41.4935767,16.4883562 C41.1942191,16.5013699 40.9078769,16.5013699 40.6085193,16.4883562 C40.4653482,16.4883562 40.4002705,16.540411 40.3482082,16.6705479 C40.0878972,17.3472603 39.8275862,18.0239726 39.5672752,18.7006849 C39.515213,18.8438356 39.4501352,18.9089041 39.2939486,18.8958904 C39.020622,18.9089041 38.7863421,18.9219178 38.5130156,18.9219178 Z" id="Path"></path>
            <path d="M11.4406694,4.97123288 C12.4298513,4.97123288 13.3669709,4.97123288 14.3171062,4.97123288 C14.4732928,4.97123288 14.5513861,5.01027397 14.6164638,5.16643836 C14.7205882,5.47876712 14.8377282,5.77808219 14.9678837,6.07739726 C15.0199459,6.20753425 15.0329615,6.25958904 14.8507437,6.25958904 C13.1457066,6.25958904 11.4406694,6.25958904 9.73563218,6.25958904 C9.47532116,6.25958904 9.60547667,6.11643836 9.64452333,6.02534247 C10.3473631,4.20342466 11.0502028,2.39452055 11.7530426,0.57260274 C11.8181204,0.390410959 11.857167,0.143150685 11.9873225,0.0520547945 C12.117478,-0.0390410959 12.3647735,0.0260273973 12.5600068,0.0260273973 C12.8203178,0.0260273973 13.0676133,0.0260273973 13.3539554,0.0260273973 C12.7161934,1.67876712 12.0784314,3.30547945 11.4406694,4.97123288 Z" id="Path"></path>
            <path d="M21.1763016,4.43767123 C21.1763016,5.83013699 21.1763016,7.22260274 21.1763016,8.61506849 C21.1763016,8.79726027 21.1242394,8.84931507 20.9550372,8.83630137 C20.642664,8.82328767 20.3302907,8.82328767 20.0179175,8.83630137 C19.9137931,8.83630137 19.8617309,8.81027397 19.8747465,8.69315068 C19.8747465,8.65410959 19.8747465,8.60205479 19.8747465,8.5630137 C19.8747465,5.80410959 19.8747465,3.03219178 19.8747465,0.273287671 C19.8747465,0.0520547945 19.9398242,8.0838114e-16 20.1350575,0.0130136986 C20.408384,0.0260273973 20.6817106,0.0260273973 20.9550372,0.0130136986 C21.1242394,8.18789481e-16 21.1893171,0.0520547945 21.1763016,0.234246575 C21.1763016,1.63972603 21.1763016,3.03219178 21.1763016,4.43767123 Z" id="Path"></path>
            <path d="M13.0285666,11.9205479 C13.0285666,10.5410959 13.0285666,9.14863014 13.0285666,7.76917808 C13.0285666,7.6 13.0676133,7.52191781 13.249831,7.53493151 C13.5361731,7.54794521 13.8225152,7.5609589 14.1088573,7.53493151 C14.3171062,7.52191781 14.3171062,7.6260274 14.3171062,7.78219178 C14.3171062,10.4630137 14.3171062,13.1568493 14.3171062,15.8376712 C14.3171062,16.3452055 14.3171062,16.3452055 13.8225152,16.3452055 C13.6272819,16.3452055 13.4320487,16.3321918 13.2368154,16.3452055 C13.0676133,16.3582192 13.0415822,16.2931507 13.0415822,16.1369863 C13.0415822,14.7445205 13.0285666,13.3260274 13.0285666,11.9205479 Z" id="Path"></path>
            <path d="M14.030764,0.0130136986 C14.4472617,0.0130136986 14.8637593,0.0130136986 15.2802569,0.0130136986 C15.423428,0.0130136986 15.4364435,0.104109589 15.4624746,0.195205479 C15.9961122,1.56164384 16.5167343,2.92808219 17.0503719,4.29452055 C17.2846518,4.88013699 17.5059162,5.47876712 17.7401961,6.06438356 C17.8052738,6.22054795 17.7662272,6.25958904 17.6100406,6.24657534 C17.2586207,6.23356164 16.9202164,6.24657534 16.5687965,6.24657534 C16.4776876,6.24657534 16.4126099,6.23356164 16.3735632,6.12945205 C15.5926302,4.11232877 14.8116971,2.08219178 14.030764,0.0650684932 C14.0177485,0.0650684932 14.030764,0.0520547945 14.030764,0.0130136986 Z" id="Path"></path>
            <path d="M45.4372887,11.4780822 C45.4112576,11.4780822 45.3982421,11.4780822 45.372211,11.4780822 C45.0207911,11.4780822 45.0207911,11.4780822 45.0077755,11.8294521 C45.0077755,11.959589 44.9557133,11.9856164 44.8515889,11.9726027 C44.6693712,11.959589 44.4871535,11.959589 44.3049358,11.9726027 C44.1617647,11.9856164 44.1227181,11.9465753 44.1227181,11.8034247 C44.1227181,11.4780822 44.1227181,11.4780822 43.7973293,11.4780822 C42.6389452,11.4780822 41.4805612,11.4780822 40.3221771,11.4780822 C40.1399594,11.4780822 40.0488506,11.5041096 40.0878972,11.6993151 C40.1399594,11.9335616 40.0228195,11.9986301 39.8015551,11.9726027 C39.7234618,11.959589 39.6453685,11.9726027 39.5802907,11.9726027 C39.2288709,11.9726027 39.2158553,11.9726027 39.2028398,11.6212329 C39.2028398,11.5171233 39.1637931,11.4780822 39.0596687,11.4780822 C38.8644354,11.4780822 38.6822177,11.4780822 38.4869844,11.4780822 C38.3698445,11.4780822 38.3047667,11.4520548 38.3177823,11.3219178 C38.3307978,11.1267123 38.3307978,10.9315068 38.3177823,10.7363014 C38.3177823,10.6321918 38.3568289,10.6061644 38.4479378,10.6061644 C38.6301555,10.6061644 38.8123732,10.5931507 38.9945909,10.6061644 C39.1507776,10.6191781 39.2158553,10.580137 39.2028398,10.4109589 C39.1898242,10.1116438 39.2028398,10.1116438 39.5021974,10.1116438 C39.5542596,10.1116438 39.6063218,10.1116438 39.658384,10.1116438 C39.7885396,10.1116438 39.9447262,10.0726027 40.035835,10.1246575 C40.152975,10.189726 40.0748817,10.3589041 40.0748817,10.4760274 C40.0748817,10.580137 40.1269439,10.5931507 40.2180527,10.5931507 C41.4675456,10.5931507 42.7170385,10.5931507 43.9665314,10.5931507 C44.1097025,10.5931507 44.1227181,10.5280822 44.1227181,10.4109589 C44.1227181,10.0986301 44.1227181,10.0986301 44.4481068,10.0986301 C44.4871535,10.0986301 44.5392157,10.0986301 44.5782623,10.0986301 C44.7084178,10.0986301 44.8646045,10.0726027 44.9557133,10.1246575 C45.0468222,10.189726 44.9817444,10.3458904 44.99476,10.4630137 C44.99476,10.5671233 45.0468222,10.5931507 45.137931,10.580137 C45.3461799,10.580137 45.5414131,10.580137 45.7496619,10.580137 C45.8537863,10.580137 45.9058485,10.6191781 45.892833,10.7232877 C45.8798174,10.8143836 45.892833,10.9054795 45.892833,10.9965753 C45.9058485,11.4780822 45.9058485,11.4780822 45.4372887,11.4780822 Z" id="Path"></path>
            <path d="M42.1183232,13.2349315 C41.0380325,13.2349315 39.9577417,13.2349315 38.8644354,13.2349315 C38.6822177,13.2349315 38.61714,13.1828767 38.6431711,13.0006849 C38.6692022,12.7794521 38.5520622,12.5061644 38.6952333,12.3760274 C38.8253888,12.2458904 39.0987153,12.3369863 39.3069642,12.3369863 C41.311359,12.3369863 43.3157539,12.3369863 45.3201487,12.3369863 C45.515382,12.3369863 45.5804598,12.3890411 45.5544287,12.5842466 C45.5414131,12.7273973 45.5414131,12.8705479 45.5544287,13.0136986 C45.5674442,13.1958904 45.515382,13.2479452 45.3331643,13.2479452 C44.2658891,13.2349315 43.1855984,13.2349315 42.1183232,13.2349315 Z" id="Path"></path>
            <path d="M49.979716,17.9979452 C49.1337052,17.9979452 48.2876944,17.9849315 47.4416836,17.9979452 C47.2204192,17.9979452 47.1943881,17.9328767 47.285497,17.7636986 C47.3896214,17.5554795 47.3896214,17.2431507 47.5718391,17.1390411 C47.7540568,17.0349315 48.0273834,17.1 48.2616633,17.1 C49.6933739,17.1 51.1381001,17.1 52.5698107,17.1 C52.7390128,17.1 52.8171062,17.1390411 52.7910751,17.3212329 C52.7780595,17.4643836 52.7780595,17.6205479 52.7910751,17.7767123 C52.8040906,17.9589041 52.7520284,18.0109589 52.5698107,18.0109589 C51.6977688,17.9979452 50.8387424,17.9979452 49.979716,17.9979452 Z" id="Path"></path>
            <path d="M14.8897904,18.9219178 C14.0698107,18.9219178 13.2888776,18.9219178 12.4688979,18.9219178 C12.6250845,18.5054795 12.7812711,18.1150685 12.9374577,17.7116438 C12.9634888,17.6335616 13.0285666,17.6465753 13.0936444,17.6465753 C13.4841109,17.6465753 13.8745774,17.6465753 14.2780595,17.6465753 C14.3301217,17.6465753 14.3951995,17.6335616 14.4342461,17.7116438 C14.5774172,18.1020548 14.7205882,18.5054795 14.8897904,18.9219178 Z" id="Path"></path>
            <path d="M51.1901623,12.7534247 C51.1901623,12.8705479 51.1901623,12.9226027 51.1901623,12.9876712 C51.1771467,13.1828767 51.2812711,13.4821918 51.1511156,13.5732877 C50.9428668,13.7034247 50.6565247,13.5993151 50.3962137,13.6123288 C50.3051048,13.6123288 50.3051048,13.560274 50.3051048,13.4952055 C50.3051048,13.039726 50.3051048,12.5712329 50.3051048,12.1157534 C50.3051048,12.0116438 50.3441515,11.9726027 50.4352603,11.9856164 C50.4482759,11.9856164 50.4482759,11.9856164 50.4612914,11.9856164 C50.6955713,11.9986301 51.0209601,11.8815068 51.1381001,12.0246575 C51.2942867,12.2068493 51.1641312,12.5321918 51.1901623,12.7534247 Z" id="Path"></path>
            <path d="M39.1898242,14.2369863 C39.2158553,14.0547945 39.0987153,13.7684932 39.2418864,13.6513699 C39.3720419,13.5472603 39.6453685,13.6383562 39.8536173,13.6123288 C40.035835,13.5993151 40.1009128,13.6513699 40.0878972,13.8465753 C40.0748817,14.1589041 40.0748817,14.4842466 40.0878972,14.7965753 C40.0878972,14.9006849 40.0618661,14.939726 39.9447262,14.939726 C39.7364773,14.9267123 39.5412441,14.9267123 39.3329953,14.939726 C39.2028398,14.939726 39.1768087,14.8876712 39.1898242,14.7835616 C39.2028398,14.6013699 39.1898242,14.4321918 39.1898242,14.2369863 Z" id="Path"></path>
            <path d="M42.5478364,14.3150685 C42.5218053,14.4972603 42.6389452,14.7835616 42.4957742,14.9006849 C42.3786342,15.0047945 42.0922921,14.9267123 41.8840433,14.939726 C41.7018256,14.9527397 41.6497634,14.9006849 41.6627789,14.7184932 C41.6757945,14.4061644 41.6757945,14.0808219 41.6627789,13.7684932 C41.6627789,13.6383562 41.7018256,13.5993151 41.8319811,13.5993151 C42.0141988,13.6123288 42.209432,13.6123288 42.3916498,13.5993151 C42.5087897,13.5993151 42.5478364,13.6253425 42.5478364,13.7554795 C42.5348208,13.9246575 42.5478364,14.1068493 42.5478364,14.3150685 Z" id="Path"></path>
            <path d="M45.0077755,14.2890411 C44.9817444,14.4972603 45.0988844,14.7705479 44.9557133,14.9006849 C44.8385734,15.0047945 44.5652468,14.9136986 44.3700135,14.939726 C44.1747803,14.9657534 44.1097025,14.9006849 44.1227181,14.6924658 C44.1357336,14.380137 44.1357336,14.0678082 44.1227181,13.7684932 C44.1227181,13.6513699 44.1487492,13.5993151 44.2789047,13.6123288 C44.2919202,13.6123288 44.2919202,13.6123288 44.3049358,13.6123288 C44.5262001,13.6123288 44.8255578,13.5342466 44.9687289,13.6513699 C45.1118999,13.7684932 44.9817444,14.0678082 45.0077755,14.2890411 Z" id="Path"></path>
        </g>
    </g>
</svg>