<?xml version="1.0" encoding="UTF-8"?>
<svg width="100px" height="50px" viewBox="0 0 100 50" version="1.1" xmlns="http://www.w3.org/2000/svg" xmlns:xlink="http://www.w3.org/1999/xlink">
    <!-- Generator: Sketch 57.1 (83088) - https://sketch.com -->
    <title>partners logos</title>
    <desc>Created with Sketch.</desc>
    <g id="partners-logos" stroke="none" stroke-width="1" fill="none" fill-rule="evenodd">
        <g id="QRCargo-white" transform="translate(5.000000, 18.000000)" fill="#FFFFFF" fill-rule="nonzero">
            <path d="M62.480248,4.30416362 L62.3800792,4.30416362 C62.2588223,4.06223521 61.9003237,3.34696859 60.434697,3.34696859 C58.7318285,3.34696859 57.8250378,4.46720234 57.8250378,6.38685172 C57.8250378,6.74448503 57.8250378,7.68590212 58.4471384,8.51161432 C58.8109091,8.99021183 59.3644731,9.43725347 60.2923519,9.43725347 C61.5470971,9.43725347 62.1902858,8.81665449 62.6436812,8.28020453 L62.754394,8.3485756 L62.6436812,9.35836377 C61.8686915,9.78436815 60.9935331,10 60.0656543,10 C58.0780957,10 56.4279476,8.76932067 56.4279476,6.48151936 C56.4279476,4.44090577 57.6826928,2.8 60.4030647,2.8 C61.2360468,2.8 61.9688602,2.94200146 62.7860262,3.3101534 L62.480248,4.30416362 Z" id="path4240"></path>
            <path d="M65.8499192,4.57592868 L64.8020252,7.11679049 C65.1637348,7.12748886 65.5148059,7.15958395 65.8711962,7.15958395 C66.1903518,7.15958395 66.4988688,7.13818722 66.8180243,7.11679049 L65.8499192,4.57592868 Z M67.5467627,8.85527489 L67.1159028,7.75869242 C66.6744043,7.73729569 66.2435443,7.71589896 65.8020459,7.71589896 C65.392463,7.71589896 64.9775608,7.73729569 64.5679779,7.75869242 C64.2381838,8.55572065 63.9083898,9.4115899 63.7434928,10 C63.6105113,9.97860327 63.4136987,9.93580981 63.2488017,9.93580981 C63.0732662,9.93580981 62.9296462,9.97860327 62.7860262,10 L63.9775401,7.3307578 C65.0147956,4.99316493 65.6105526,3.65052006 65.8605577,2.8 C65.9722621,2.8320951 66.0786473,2.85349183 66.2009903,2.85349183 C66.3126947,2.85349183 66.4190799,2.8320951 66.5307843,2.8 C67.0254754,4.21753343 67.6425094,5.66181278 68.0095382,6.53372957 C68.3978441,7.43239227 69.0787092,8.99435364 69.5414847,10 C69.3872262,9.98930163 69.0308359,9.93580981 68.7382767,9.93580981 C68.4510367,9.93580981 68.1637967,9.98930163 67.9776227,10 L67.5467627,8.85527489 Z" id="path4242"></path>
            <path d="M71.683487,6.3025641 C71.8789692,6.31282051 72.1220012,6.33333333 72.3861664,6.33333333 C73.405844,6.33333333 73.7862418,5.61025641 73.7862418,4.96410256 C73.7862418,4.54871795 73.7122756,4.18974359 73.3582942,3.93333333 C73.0835625,3.73333333 72.745431,3.68717949 72.4072996,3.68717949 C72.2118173,3.68717949 71.8367028,3.72820513 71.683487,3.73846154 L71.683487,6.3025641 Z M73.6435926,7.02564103 C73.7968085,7.23589744 74.0239905,7.55897436 74.171923,7.76923077 C74.9802685,8.86666667 75.2550003,9.21538462 75.8995633,10 C75.6142649,9.96923077 75.355383,9.93846154 74.9908351,9.93846154 C74.5945873,9.93846154 74.467788,9.95897436 74.1666397,10 C74.0134239,9.77435897 73.7862418,9.40512821 73.633026,9.17435897 C73.109979,8.38974359 72.4812658,7.51794872 71.9265189,6.76410256 L71.683487,6.76410256 L71.683487,8.17435897 C71.683487,8.46153846 71.7257534,9.73846154 71.7257534,10 C71.5197046,9.97948718 71.2978058,9.93846154 71.0389239,9.93846154 C70.8064586,9.93846154 70.5581433,9.96923077 70.3362445,10 C70.4154941,8.04615385 70.4260607,7.83076923 70.4260607,5.91794872 C70.4260607,4.62051282 70.4260607,4.48205128 70.3520945,3.2 C70.5845598,3.22051282 70.8540083,3.25128205 71.3717721,3.25128205 C71.6359372,3.25128205 72.8193973,3.2 73.0571459,3.2 C73.7228422,3.2 74.2194727,3.27692308 74.657987,3.68717949 C74.9644186,3.97435897 75.128201,4.37948718 75.128201,4.8 C75.128201,5.9025641 74.2828724,6.46666667 73.3530109,6.63589744 L73.6435926,7.02564103 Z" id="path4244"></path>
            <path d="M79.6942515,2.8 C80.4965725,2.8 81.1979727,2.94210526 81.9750635,3.31052632 L81.6823929,4.30526316 L81.5865181,4.30526316 C81.470459,4.06315789 81.127328,3.34736842 79.7245278,3.34736842 C78.0946556,3.34736842 77.226736,4.46842105 77.226736,6.38947368 C77.226736,7.16315789 77.3629792,7.89473684 77.8221692,8.51578947 C78.1753923,8.99473684 78.7001808,9.44210526 79.5882846,9.44210526 C80.0474746,9.44210526 80.5823553,9.34210526 80.9759467,9.07368421 C81.006223,8.36315789 81.006223,8.27894737 81.006223,8.14736842 C81.006223,7.64736842 80.9759467,7.15263158 80.9507165,6.65263158 C81.1626504,6.68421053 81.3897223,6.72631579 81.6420245,6.72631579 C81.9145109,6.72631579 82.0507541,6.69473684 82.2576419,6.65263158 C82.1970894,7.02105263 82.1769052,8.08947368 82.1769052,8.36315789 C82.1769052,8.74736842 82.1869973,9.00526316 82.2071815,9.28947368 C81.3796303,9.74736842 80.314915,10 79.3813968,10 C77.4790382,10 75.8995633,8.76842105 75.8995633,6.47894737 C75.8895343,4.43684211 77.0904928,2.8 79.6942515,2.8" id="path4246"></path>
            <path d="M87.2248908,9.48421053 C88.9475135,9.48421053 89.6124772,7.85789474 89.6124772,6.4 C89.6124772,4.74210526 88.9946369,3.31578947 87.2248908,3.31578947 C85.4813245,3.31578947 84.8373044,5.00526316 84.8373044,6.4 C84.8373044,7.91578947 85.4865604,9.48421053 87.2248908,9.48421053 M91,6.27894737 C91,8.54736842 89.471107,10 87.2248908,10 C85.1200449,10 83.4497817,8.74736842 83.4497817,6.52105263 C83.4497817,3.93684211 85.2090558,2.8 87.2563064,2.8 C89.146479,2.8 91,3.83684211 91,6.27894737" id="path4248"></path>
            <rect id="rect4250" x="50.8646288" y="2.8" width="1" height="10.4"></rect>
            <path d="M9.38299392,13.2 C9.44984288,13.1946903 9.55011631,13.1787611 9.65038975,13.1787611 C9.75066318,13.1787611 9.87879035,13.1946903 9.93449782,13.2 C9.77294617,12.8654867 9.53340407,12.3451327 9.39413541,12.0424779 C9.26600824,11.7504425 9.04874913,11.2725664 8.87048525,10.8 C8.83149002,10.8106195 8.7924948,10.8159292 8.75349957,10.8159292 C8.7089336,10.8159292 8.67550912,10.8106195 8.63094315,10.8 C8.54181121,11.0814159 8.33569359,11.5327434 7.96802432,12.3079646 L7.55021834,13.2 C7.60035506,13.1946903 7.65049178,13.1787611 7.71176999,13.1787611 C7.7730482,13.1787611 7.83989716,13.1946903 7.88446313,13.2 C7.94017059,13.0035398 8.05715627,12.7168142 8.17414194,12.4513274 C8.31898135,12.4460177 8.46382076,12.4353982 8.60866016,12.4353982 C8.76464106,12.4353982 8.91505122,12.440708 9.07103212,12.4513274 L9.22144227,12.8176991 L9.38299392,13.2 Z M8.97075868,12.2389381 C8.85934375,12.2442478 8.74792883,12.2548673 8.6365139,12.2548673 C8.50838673,12.2548673 8.38583031,12.2442478 8.25770314,12.2389381 L8.6253724,11.3893805 L8.97075868,12.2389381 Z" id="path4252"></path>
            <path d="M10.361788,11.6071749 C10.361788,12.2044843 10.361788,12.7802691 10.3318777,13.2 C10.3916984,13.1946188 10.4728835,13.1784753 10.5327041,13.1784753 C10.5967977,13.1784753 10.6608912,13.1946188 10.7249847,13.2 C10.7036202,12.9147982 10.6993473,12.5381166 10.6993473,12.0161435 C10.6993473,11.6609865 10.6993473,11.058296 10.7292576,10.8 C10.6608912,10.8107623 10.5925248,10.8215247 10.5327041,10.8215247 C10.4899751,10.8215247 10.3874255,10.8053812 10.3361506,10.8 C10.361788,11.1390135 10.361788,11.3865471 10.361788,11.6071749" id="path4254"></path>
            <path d="M11.607971,10.9883408 C11.66394,10.9829596 11.7982656,10.9721973 11.8654284,10.9721973 C11.9829633,10.9721973 12.1060951,10.9883408 12.2068393,11.058296 C12.335568,11.1497758 12.3579556,11.2735426 12.3579556,11.4188341 C12.3579556,11.644843 12.22363,11.903139 11.8598315,11.903139 C11.7646842,11.903139 11.6807307,11.8977578 11.607971,11.8923767 L11.607971,10.9883408 Z M12.2012424,12.0107623 C12.5314595,11.9515695 12.8336921,11.7524664 12.8336921,11.3650224 C12.8336921,11.2197309 12.7777231,11.0744395 12.6657851,10.9721973 C12.5090719,10.8269058 12.3299711,10.8 12.0949013,10.8 C12.0109478,10.8 11.5911803,10.8161435 11.496033,10.8161435 C11.3113353,10.8161435 11.216188,10.8053812 11.1322345,10.8 C11.160219,11.2520179 11.160219,11.3004484 11.160219,11.7578475 C11.160219,12.4304933 11.1546221,12.5112108 11.1266376,13.2 C11.2049942,13.1892377 11.2945446,13.1784753 11.3784981,13.1784753 C11.4680485,13.1784753 11.552002,13.1946188 11.6247617,13.2 C11.6247617,13.1085202 11.607971,12.6565022 11.607971,12.5542601 L11.607971,12.0591928 L11.6975214,12.0591928 C11.8934129,12.32287 12.1172889,12.6349776 12.3019866,12.909417 C12.3579556,12.9901345 12.4363122,13.1192825 12.4922812,13.2 C12.6042192,13.1838565 12.6433975,13.1784753 12.7889169,13.1784753 C12.9176456,13.1784753 13.0127929,13.1892377 13.1135371,13.2 C12.8840642,12.9255605 12.7889169,12.8017937 12.4978781,12.4143498 C12.4419091,12.3390135 12.3635525,12.226009 12.3075835,12.1506726 L12.2012424,12.0107623 Z" id="path4256"></path>
            <path d="M14.0407569,12.3820628 C13.8935792,11.8977578 13.6826244,11.2143498 13.5845059,10.8 C13.5060111,10.8161435 13.4373282,10.8215247 13.3637393,10.8215247 C13.2852445,10.8215247 13.1773141,10.8053812 13.1135371,10.8 C13.2410912,11.1766816 13.3539274,11.5156951 13.4422341,11.7793722 C13.5894118,12.2313901 13.6826244,12.5488789 13.8003666,12.9363229 L13.8788614,13.2 C13.9230147,13.1892377 13.972074,13.1784753 14.0113214,13.1784753 C14.0456628,13.1784753 14.0750984,13.1838565 14.1339695,13.2 C14.1830287,13.0170404 14.2468058,12.7964126 14.2909591,12.6511211 C14.4136072,12.2529148 14.428325,12.1991031 14.5951264,11.6986547 L14.688339,11.4080717 C14.7226805,11.5210762 14.7815516,11.6986547 14.820799,11.8116592 C14.8551404,11.9192825 15.017036,12.4573991 15.0562834,12.5757848 C15.1102485,12.7318386 15.1200604,12.7802691 15.2378026,13.2 C15.2672381,13.1946188 15.3261092,13.1784753 15.3751685,13.1784753 C15.4193218,13.1784753 15.4536633,13.1892377 15.5027225,13.2 C15.6253706,12.7856502 15.6351825,12.7426009 15.8167017,12.1829596 C15.993315,11.6394619 16.1012454,11.3273543 16.2925764,10.8 C16.2435172,10.8161435 16.1993638,10.8215247 16.1503046,10.8215247 C16.0914335,10.8215247 16.0374683,10.8107623 16.0031269,10.8 C15.8853847,11.2520179 15.8314195,11.4726457 15.7382069,11.773991 C15.5861232,12.2636771 15.5664995,12.3174888 15.4781929,12.5865471 C15.3751685,12.2852018 15.27705,11.9784753 15.1838374,11.6717489 C15.1347782,11.5049327 14.9385412,10.8053812 14.9336352,10.8 C14.8894819,10.8107623 14.8551404,10.8215247 14.7913634,10.8215247 C14.7324923,10.8215247 14.6932449,10.8053812 14.6490916,10.8 C14.555879,11.2251121 14.2173702,12.2529148 14.1830287,12.3497758 L14.1045339,12.5757848 L14.0407569,12.3820628 Z" id="path4258"></path>
            <path d="M17.7279721,13.2 C17.794821,13.1946903 17.8950945,13.1787611 17.9953679,13.1787611 C18.0956414,13.1787611 18.2237685,13.1946903 18.279476,13.2 C18.1179243,12.8654867 17.8783822,12.3451327 17.7391136,12.0424779 C17.6109864,11.7504425 17.3937273,11.2725664 17.2154634,10.8 C17.1764682,10.8106195 17.137473,10.8159292 17.0984777,10.8159292 C17.0539118,10.8159292 17.0204873,10.8106195 16.9759213,10.8 C16.8923601,11.0814159 16.6806718,11.5327434 16.3130025,12.3079646 L15.8951965,13.2 C15.9453332,13.1946903 15.9954699,13.1787611 16.0567482,13.1787611 C16.1124556,13.1787611 16.1848753,13.1946903 16.2294413,13.2 C16.2851488,13.0035398 16.4021344,12.7168142 16.5191201,12.4513274 C16.6639595,12.4460177 16.8087989,12.4353982 16.9536383,12.4353982 C17.1096192,12.4353982 17.2600294,12.440708 17.4160103,12.4513274 L17.5664204,12.8176991 L17.7279721,13.2 Z M17.3157368,12.2389381 C17.2043219,12.2442478 17.092907,12.2548673 16.9814921,12.2548673 C16.8533649,12.2548673 16.7308085,12.2442478 16.6026813,12.2389381 L16.9703506,11.3893805 L17.3157368,12.2389381 Z" id="path4260"></path>
            <path d="M19.0832444,12.261573 C19.0832444,12.2292135 19.1032636,12.1914607 19.1232827,12.1483146 C19.2584119,11.8948315 19.3885363,11.6305618 19.5336751,11.3824719 C19.5837229,11.2961798 19.8189478,10.8916854 19.8689956,10.8 C19.8339621,10.8161798 19.7989286,10.821573 19.7338664,10.821573 C19.6587947,10.821573 19.5987373,10.8107865 19.5436846,10.8 C19.3084597,11.3555056 19.2584119,11.4741573 18.9831487,11.9865169 C18.7078856,11.4633708 18.5827659,11.1883146 18.4126033,10.8 C18.3175123,10.8161798 18.2224214,10.821573 18.1473497,10.821573 C18.0772827,10.821573 18.0022109,10.8161798 17.8820961,10.8 C18.0522588,11.1020225 18.3275219,11.5874157 18.4926798,11.8948315 L18.6828616,12.2507865 C18.6828616,12.4665169 18.6728521,12.9249438 18.6628425,13.2 C18.7228999,13.1946067 18.812986,13.178427 18.883053,13.178427 C18.9581248,13.178427 19.0331966,13.1946067 19.1082683,13.2 C19.093254,12.8764045 19.0832444,12.6876404 19.0832444,12.3910112 L19.0832444,12.261573 Z" id="path4262"></path>
            <path d="M20.3494515,12.6469565 C20.3328363,12.8086957 20.3272979,12.8556522 20.2663755,13.0278261 C20.399297,13.0904348 20.6319097,13.2 20.9420599,13.2 C21.601129,13.2 21.8558952,12.8034783 21.8558952,12.4591304 C21.8558952,12.3652174 21.8282032,12.1617391 21.6786665,12.0104348 C21.573437,11.9008696 21.4682075,11.8643478 21.1912877,11.76 C20.8755991,11.6452174 20.692832,11.5773913 20.692832,11.3321739 C20.692832,11.133913 20.8312919,10.9669565 21.1192885,10.9669565 C21.3463628,10.9669565 21.5346682,11.0713043 21.5900522,11.2643478 L21.6398978,11.2643478 C21.6731281,11.133913 21.6786665,11.1078261 21.7506657,10.9408696 C21.573437,10.8678261 21.4183619,10.8 21.1525189,10.8 C20.4989882,10.8 20.3106827,11.1808696 20.3106827,11.4782609 C20.3106827,11.76 20.4159122,11.9321739 20.7648312,12.0782609 C20.8645223,12.12 21.0362126,12.1826087 21.1359037,12.2191304 C21.2023645,12.2452174 21.4294387,12.3391304 21.4294387,12.6104348 C21.4294387,12.8556522 21.2411332,13.0330435 20.958675,13.0330435 C20.748216,13.0330435 20.5654489,12.9808696 20.399297,12.6417391 L20.3494515,12.6417391 L20.3494515,12.6469565 Z" id="path4264"></path>
            <path d="M6.42339758,11.6 C6.7297682,11.3912037 7.20230594,11.1314815 7.55021834,10.9837963 L5.26022777,9.59351852 C6.66745554,9.10972222 7.55021834,7.87731481 7.55021834,6.19675926 C7.55021834,3.81342593 5.69641645,2.8 3.8062655,2.8 C1.76033289,2.8 0,3.91018519 0,6.43101852 C0,6.96574074 0.124625337,7.97916667 0.971039085,8.82453704 C1.85380189,9.70046296 2.89753909,9.82777778 3.77510917,9.82777778 C3.88415634,9.82777778 3.99839623,9.82777778 4.1074434,9.81759259 L6.42339758,11.6 Z M1.38126415,6.48194444 C1.38126415,3.98148148 2.74695014,3.30416667 3.78030189,3.30416667 C5.44197305,3.30416667 6.15856874,4.6537037 6.15856874,6.09490741 C6.15856874,6.91990741 6.05990702,7.69398148 5.6392965,8.32037037 C5.22387871,8.94675926 4.53843936,9.32361111 3.78549462,9.32361111 C1.91611456,9.32361111 1.38126415,7.57685185 1.38126415,6.48194444 L1.38126415,6.48194444 Z" id="path4266"></path>
            <path d="M13.5382369,10 C13.7229565,9.98938836 14.0132301,9.93633014 14.298226,9.93633014 C14.5884996,9.93633014 14.9473833,9.98938836 15.1004367,10 C14.6359989,8.99719971 13.9551754,7.43728814 13.5646254,6.53529845 C13.1951863,5.6651437 12.5776951,4.21665438 12.0815912,2.8 C11.9707594,2.83183493 11.8652054,2.85305822 11.7543736,2.85305822 C11.6329865,2.85305822 11.5274325,2.83183493 11.4166007,2.8 C11.1685487,3.64893147 10.5721684,4.99130435 9.53246111,7.3311717 L8.34497817,10 C8.48747612,9.97877671 8.63525177,9.93633014 8.80941594,9.93633014 C8.9730247,9.93633014 9.16829967,9.97877671 9.30551992,10 C9.46912868,9.4110538 9.80162391,8.55151069 10.1288414,7.75563744 C10.5405022,7.73441415 10.9521629,7.71319086 11.3638237,7.71319086 C11.8071507,7.71319086 12.2399222,7.73441415 12.6832492,7.75563744 L13.1160207,8.85394252 L13.5382369,10 Z M12.3771425,7.11363301 C12.0604803,7.1348563 11.7490959,7.15607959 11.4324338,7.15607959 C11.0735501,7.15607959 10.7199441,7.12424466 10.3610603,7.11363301 L11.411323,4.56683861 L12.3771425,7.11363301 Z" id="path4268"></path>
            <path d="M18.1734572,4.57369208 C18.1734572,4.19760837 18.1841353,3.82152466 18.1948135,3.46068759 C18.9102499,3.46068759 19.6523816,3.47085202 20.2663755,3.53183857 C20.2343411,3.37428999 20.2129848,3.28281016 20.2129848,3.17608371 C20.2129848,3.09476831 20.2343411,2.967713 20.2663755,2.8 C19.267968,2.85082212 18.3496467,2.86098655 17.4847162,2.86098655 C16.6838545,2.86098655 15.5252747,2.85082212 14.7030568,2.8 C14.7350912,2.91689088 14.7564475,3.0490284 14.7564475,3.16591928 C14.7564475,3.28281016 14.7350912,3.41494768 14.7030568,3.53183857 C15.2316254,3.48101644 16.235372,3.46068759 16.3261363,3.46068759 L16.8440269,3.46068759 C16.854705,3.84693572 16.8653832,4.19252616 16.8653832,4.56352765 L16.8760613,7.32825112 C16.8760613,8.08041854 16.8119924,8.84275037 16.7746188,9.6 C17.1483543,9.5593423 17.3085266,9.53901345 17.4847162,9.53901345 C17.6075149,9.53901345 17.9438768,9.56950673 18.2428652,9.6 C18.2108307,9.32047833 18.1681181,8.99521674 18.1681181,8.24304933 L18.1681181,4.57369208 L18.1734572,4.57369208 Z" id="path4270"></path>
            <path d="M24.666094,10 C24.8506693,9.98938836 25.1407163,9.93633014 25.4254898,9.93633014 C25.7102632,9.93633014 26.0741404,9.98938836 26.2270742,10 C25.762999,8.99719971 25.0879805,7.43728814 24.6977355,6.53529845 C24.3285847,5.6651437 23.7115756,4.21665438 23.2158589,2.8 C23.1051137,2.83183493 22.9996421,2.85305822 22.8888968,2.85305822 C22.7676045,2.85305822 22.6621328,2.83183493 22.546114,2.8 C22.2982557,3.64893147 21.7023409,4.99130435 20.6634452,7.3311717 L19.4716157,10 C19.6140024,9.97877671 19.7616627,9.93633014 19.9356909,9.93633014 C20.099172,9.93633014 20.2942945,9.97877671 20.4314076,10 C20.5948887,9.4110538 20.9271243,8.55151069 21.2540864,7.75563744 C21.6654258,7.73441415 22.0767652,7.71319086 22.4881046,7.71319086 C22.9310855,7.71319086 23.3635192,7.73441415 23.8065001,7.75563744 L24.2389338,8.85394252 L24.666094,10 Z M23.5006324,7.11363301 C23.1842174,7.1348563 22.8730761,7.15607959 22.5566612,7.15607959 C22.1980576,7.15607959 21.8447276,7.12424466 21.486124,7.11363301 L22.5355669,4.56683861 L23.5006324,7.11363301 Z" id="path4272"></path>
            <path d="M28.7707547,3.33911743 C28.9226721,3.3289454 29.2998462,3.28825729 29.4936718,3.28825729 C29.8289377,3.28825729 30.1694422,3.33911743 30.4418457,3.53747195 C30.7980658,3.79685864 30.8714052,4.15287958 30.8714052,4.56993269 C30.8714052,5.21585639 30.494231,5.93807031 29.4727177,5.93807031 C29.2055527,5.93807031 28.9593418,5.91772625 28.7655162,5.90755423 L28.7655162,3.33911743 L28.7707547,3.33911743 Z M30.4470843,6.23305909 C31.3743041,6.06522064 32.2229459,5.50067315 32.2229459,4.39700823 C32.2229459,3.97995512 32.0605515,3.57307405 31.7514782,3.28825729 C31.3114417,2.88137622 30.8137814,2.8 30.1484881,2.8 C29.9127542,2.8 28.7288465,2.85086013 28.4616814,2.85086013 C27.9378284,2.85086013 27.6759019,2.82034405 27.4401681,2.8 C27.5135075,4.08167539 27.5135075,4.21899776 27.5135075,5.51593119 C27.5135075,7.42827225 27.5030305,7.64697083 27.419214,9.6 C27.6444708,9.56948392 27.8906817,9.53896784 28.121177,9.53896784 C28.3778649,9.53896784 28.6031217,9.57965595 28.8074244,9.6 C28.8074244,9.34061331 28.7655162,8.06402393 28.7655162,7.77412117 L28.7655162,6.36529544 L29.0117271,6.36529544 C29.5617727,7.11802543 30.1956348,7.99281975 30.7194878,8.77606582 C30.8714052,9.00493642 31.096662,9.37112939 31.2485793,9.6 C31.5576526,9.55931189 31.6781388,9.53896784 32.0762671,9.53896784 C32.4429642,9.53896784 32.6996521,9.56948392 32.9825328,9.6 C32.3381936,8.81675393 32.06579,8.47090501 31.2590564,7.36724009 C31.107139,7.15871354 30.8818823,6.83320868 30.7299649,6.62468212 L30.4470843,6.23305909 Z" id="path4274"></path>
            <path d="M31.8697135,11.706383 L31.8697135,13.0666667 L31.3290513,13.0666667 L31.3290513,11.8304965 C31.3290513,11.8304965 31.2188192,11.8702128 31.0665939,11.9347518 C30.9143686,11.9992908 30.3737064,12.2078014 30.3737064,12.4907801 L30.3737064,12.8184397 L30.9248669,12.8184397 L30.9248669,13.0716312 L29.61258,13.0716312 C29.61258,13.0120567 29.61258,12.922695 29.61258,12.793617 C29.61258,12.3865248 29.2503888,12.1680851 28.9196925,12.1680851 L27.407938,12.1680851 C27.1402315,12.1680851 27.014252,12.2276596 26.9407639,12.2971631 L26.9407639,11.2496454 C26.9407639,11.2496454 26.7045523,11.4085106 26.5313304,11.5326241 C26.3581085,11.6567376 26.5313304,11.7411348 26.5313304,11.7411348 L26.5313304,13.0716312 L26.0326614,13.0716312 L26.0221631,11.9297872 C26.0221631,11.9297872 25.6757193,12.1680851 25.5759855,12.2425532 C25.4762517,12.3170213 25.5339923,12.3815603 25.6389753,12.3815603 C25.6389753,12.3815603 25.6179787,13.2255319 25.6179787,13.4241135 C25.6179787,13.622695 25.4447568,13.8510638 25.0773165,13.751773 C25.0773165,13.751773 24.9618353,13.7716312 25.0563199,13.8560284 C25.1508046,13.9404255 25.271535,14 25.4027637,14 C25.5339923,14 26.0116648,13.9156028 26.0116648,13.4241135 L32.2581504,13.4241135 L32.2581504,11.2943262 C32.2581504,11.2943262 31.8907101,11.522695 31.817222,11.587234 C31.7489831,11.641844 31.7699797,11.7163121 31.8697135,11.706383 L31.8697135,11.706383 Z M29.2241431,12.8234043 C29.2241431,12.8829787 29.2188939,12.987234 29.2188939,13.0666667 L26.9512622,13.0666667 L26.9512622,12.6893617 C27.0090028,12.5453901 27.1087366,12.5255319 27.266211,12.5255319 L28.9196925,12.5255319 C29.2766346,12.5304965 29.2241431,12.7092199 29.2241431,12.8234043 L29.2241431,12.8234043 Z M30.930116,12.5404255 L30.6729078,12.5404255 C30.6729078,12.406383 30.930116,12.3319149 30.930116,12.3319149 L30.930116,12.5404255 Z M32.5416044,11.5822695 C32.4628671,11.6468085 32.4891129,11.7212766 32.5835975,11.706383 L32.5835975,13.4191489 L32.9825328,13.4191489 L32.9825328,11.2893617 C32.9825328,11.2893617 32.6150924,11.522695 32.5416044,11.5822695 L32.5416044,11.5822695 Z M31.0508464,11.5375887 C31.1925734,11.5375887 31.2870581,11.4879433 31.2870581,11.3787234 C31.2870581,11.2744681 31.2240683,11.2 31.0508464,11.2 C30.8986212,11.2 30.856628,11.264539 30.856628,11.3787234 C30.856628,11.4978723 30.9091195,11.5375887 31.0508464,11.5375887 L31.0508464,11.5375887 Z M30.5101842,11.5375887 C30.6519112,11.5375887 30.7463959,11.4879433 30.7463959,11.3787234 C30.7463959,11.2744681 30.6834061,11.2 30.5101842,11.2 C30.357959,11.2 30.3159658,11.264539 30.3159658,11.3787234 C30.3159658,11.4978723 30.3684573,11.5375887 30.5101842,11.5375887 L30.5101842,11.5375887 Z M24.4106748,13.5531915 C24.2584495,13.5531915 24.2164563,13.612766 24.2164563,13.7319149 C24.2164563,13.8460993 24.2689478,13.8907801 24.4106748,13.8907801 C24.5524017,13.8907801 24.6468864,13.8411348 24.6468864,13.7319149 C24.6468864,13.6276596 24.5838966,13.5531915 24.4106748,13.5531915 L24.4106748,13.5531915 Z M23.8700126,13.5531915 C23.7177873,13.5531915 23.6757941,13.612766 23.6757941,13.7319149 C23.6757941,13.8460993 23.7282856,13.8907801 23.8700126,13.8907801 C24.0117395,13.8907801 24.1062242,13.8411348 24.1062242,13.7319149 C24.1062242,13.6276596 24.0432344,13.5531915 23.8700126,13.5531915 L23.8700126,13.5531915 Z M23.0826404,11.5723404 C23.2243674,11.5723404 23.3188521,11.522695 23.3188521,11.4134752 C23.3188521,11.3092199 23.2558623,11.2347518 23.0826404,11.2347518 C22.9304151,11.2347518 22.888422,11.2992908 22.888422,11.4134752 C22.888422,11.5276596 22.9409134,11.5723404 23.0826404,11.5723404 L23.0826404,11.5723404 Z M22.5629748,11.5723404 C22.6994527,11.5723404 22.7991865,11.522695 22.7991865,11.4134752 C22.7991865,11.3092199 22.7309475,11.2347518 22.5629748,11.2347518 C22.4107495,11.2347518 22.3687564,11.2992908 22.3687564,11.4134752 C22.3687564,11.5276596 22.4212478,11.5723404 22.5629748,11.5723404 L22.5629748,11.5723404 Z M25.0878148,12.1531915 C25.0878148,12.1531915 24.8306066,12.2921986 24.6731321,12.4262411 C24.5104086,12.5602837 24.704627,12.6148936 24.704627,12.6148936 L24.704627,13.0716312 L23.4815756,13.0716312 L23.4815756,11.4780142 C23.4815756,11.4780142 23.0353981,11.8652482 22.9934049,11.9148936 C22.9514117,11.9695035 23.0983879,12.0191489 23.0983879,12.0191489 L23.0721421,12.1680851 C23.0721421,12.1680851 22.8936711,12.2574468 22.6784561,12.3914894 C22.463241,12.5255319 22.3057666,12.6992908 22.3057666,12.8184397 C22.3057666,12.9375887 22.2532751,13.4141844 22.2532751,13.4141844 L25.0825657,13.4141844 L25.0825657,12.1531915 L25.0878148,12.1531915 Z M23.0931387,13.0716312 L22.6732069,13.0716312 C22.6732069,13.0716312 22.6154663,12.8283688 22.7676916,12.7340426 C22.9199169,12.6397163 23.0931387,12.5652482 23.0931387,12.5652482 L23.0931387,13.0716312 Z" id="path4276"></path>
            <path d="M35.1999596,6.64693003 C35.8067621,6.64693003 36.7012728,6.63664921 37.7108667,6.62122799 C37.8939537,6.42075202 38.0875028,6.20999524 38.3019761,5.99409805 C37.0465225,5.97353641 35.9166143,5.96325559 35.1999596,5.96325559 C34.6977781,5.96325559 34.2845247,6.11746787 34.2845247,6.30252261 C34.2845247,6.49785816 34.6925471,6.64693003 35.1999596,6.64693003 L35.1999596,6.64693003 Z M36.8006629,7.73669681 C36.9523635,7.53622085 37.1249884,7.31004284 37.3237685,7.07358401 C36.4344889,7.06330319 35.6498304,7.05302237 35.1058005,7.05302237 C34.593157,7.05302237 34.1746725,7.20723465 34.1746725,7.4025702 C34.1746725,7.59790576 34.593157,7.75211804 35.1058005,7.75211804 C35.5399782,7.74697763 36.1310876,7.74183722 36.8006629,7.73669681 L36.8006629,7.73669681 Z M36.8634355,9.90080914 C36.7431212,9.78257972 36.3246367,9.31480248 36.2775572,9.26853879 C35.9741559,9.26853879 35.702141,9.26339838 35.4772056,9.26339838 C35.0011794,9.26339838 34.6193123,9.40732984 34.6193123,9.58724417 C34.6193123,9.76201809 35.0064105,9.91108996 35.4772056,9.91108996 C35.8433795,9.91108996 36.3194057,9.90594955 36.8634355,9.90080914 L36.8634355,9.90080914 Z M36.1206255,8.82646359 C36.1363187,8.74421704 36.1729361,8.65683008 36.2461709,8.56430271 C36.2357087,8.57972394 36.2304777,8.59000476 36.2409398,8.56944312 C36.3089435,8.45635412 36.3978715,8.31756307 36.5024926,8.15821038 C35.9950802,8.15306997 35.5452093,8.15306997 35.1947285,8.15306997 C34.6925471,8.15306997 34.2792936,8.30728225 34.2792936,8.49233698 C34.2792936,8.68253213 34.687316,8.83674441 35.1947285,8.83674441 C35.4562813,8.831604 35.7701447,8.831604 36.1206255,8.82646359 L36.1206255,8.82646359 Z M37.8625673,12.6406473 C37.8625673,12.7280343 38.014268,12.8 38.202586,12.8 C39.1703314,12.8 42.1206473,12.7280343 42.1206473,12.6406473 C42.1206473,12.5532604 39.1703314,12.4812946 38.202586,12.4812946 C38.019499,12.4812946 37.8625673,12.5532604 37.8625673,12.6406473 L37.8625673,12.6406473 Z M41.7649355,11.6382675 C40.1119216,11.581723 37.8677984,11.5457401 36.8529734,11.5457401 C36.5234169,11.5457401 36.2514019,11.6434079 36.2514019,11.7719181 C36.2514019,11.895288 36.5181858,11.9980961 36.8529734,11.9980961 C37.9148779,11.9980961 40.331626,11.9569729 42.000333,11.9004284 C41.9218672,11.8130414 41.8434013,11.7256545 41.7649355,11.6382675 L41.7649355,11.6382675 Z M40.891349,10.4662542 C39.0447861,10.4199905 37.0203672,10.389148 35.9950802,10.389148 C35.5765956,10.389148 35.2313459,10.5176583 35.2313459,10.6770109 C35.2313459,10.8312232 35.5713646,10.9597335 35.9950802,10.9597335 C37.0779088,10.9597335 39.2644905,10.928891 41.1842882,10.8774869 C41.0848981,10.7438363 40.9855081,10.6050452 40.891349,10.4662542 L40.891349,10.4662542 Z M44.5583196,5.18705378 C44.5478575,5.21275583 44.5321644,5.26415992 44.500778,5.32070443 C45.0395768,5.28986197 45.3691334,5.25387911 45.3691334,5.21275583 C45.3691334,5.17677297 45.0709632,5.14593051 44.5792439,5.10994764 L44.5583196,5.18705378 Z M38.207817,2.31870538 C39.1755625,2.31870538 42.1258784,2.24673965 42.1258784,2.15935269 C42.1258784,2.07196573 39.1755625,2 38.207817,2 C38.019499,2 37.8677984,2.07196573 37.8677984,2.15935269 C37.8625673,2.24673965 38.019499,2.31870538 38.207817,2.31870538 L38.207817,2.31870538 Z M44.0875246,4.03560209 C43.9567481,4.10242742 43.8312028,4.16925274 43.7108885,4.23093765 C44.3490774,4.19495478 44.7518687,4.15897192 44.7518687,4.12298905 C44.7518687,4.0921466 44.500778,4.06130414 44.0875246,4.03560209 L44.0875246,4.03560209 Z M35.4824366,5.53146121 C36.2409398,5.53146121 37.4807002,5.51603998 38.8250817,5.49033793 C39.0186308,5.31042361 39.2278731,5.12536887 39.4423464,4.93517373 C37.8625673,4.90433127 36.350792,4.88376963 35.4824366,4.88376963 C35.0064105,4.88376963 34.6245433,5.02770109 34.6245433,5.20761542 C34.6193123,5.38752975 35.0064105,5.53146121 35.4824366,5.53146121 L35.4824366,5.53146121 Z M43.6010363,6.13802951 C43.7841233,6.24597811 44.0038277,6.34878629 44.2758426,6.45159448 C45.144198,6.4104712 45.69869,6.35906711 45.69869,6.31280343 C45.69869,6.24597811 44.8407967,6.18429319 43.6010363,6.13802951 L43.6010363,6.13802951 Z M36.2514019,3.02808187 C36.2514019,3.15145169 36.5181858,3.25425988 36.8529734,3.25425988 C37.8730294,3.25425988 40.1380769,3.21827701 41.7963218,3.16173251 C41.9218672,3.07948596 42.0421815,2.992099 42.1677268,2.90985245 C40.4990198,2.84816754 37.9567263,2.80704426 36.8582045,2.80704426 C36.5181858,2.80190386 36.2514019,2.90471204 36.2514019,3.02808187 L36.2514019,3.02808187 Z M35.9950802,4.40571157 C36.8895908,4.40571157 38.5373736,4.38514993 40.1590011,4.34916706 C40.3420881,4.2052356 40.5356372,4.05616373 40.7344173,3.90709186 C38.9349339,3.86082818 36.9889809,3.83512613 35.9898491,3.83512613 C35.5713646,3.83512613 35.2261148,3.96363636 35.2261148,4.11784864 C35.2313459,4.27720133 35.5713646,4.40571157 35.9950802,4.40571157 L35.9950802,4.40571157 Z M40.1276148,9.40218943 C39.7875961,9.52041885 39.3900358,9.58210376 39.2331041,9.58210376 C38.9506271,9.58210376 38.4902941,9.73631604 38.3229003,9.87510709 C39.0081687,9.86482627 39.7352855,9.84940505 40.4519403,9.83398382 C40.4048608,9.76201809 40.2531601,9.54612089 40.2531601,9.54612089 C40.1903875,9.45873394 40.1537701,9.42275107 40.1380769,9.40218943 C40.1328458,9.40218943 40.1328458,9.40218943 40.1276148,9.40218943 L40.1276148,9.40218943 Z" id="path4278"></path>
            <path d="M45.9246813,7.15793321 C45.9299322,7.3354534 45.9299322,7.50775241 45.9194305,7.68005141 C44.1971549,7.74792678 42.5641437,7.85235042 42.5641437,7.96721643 C42.5641437,8.08208243 44.1603991,8.18128489 45.8669221,8.24916026 C45.8354171,8.44234399 45.7986612,8.63552773 45.7514036,8.82349029 C44.0711348,8.89136565 42.5116353,8.99056811 42.5116353,9.10543412 C42.5116353,9.21507894 43.966118,9.3142814 45.5781259,9.38215677 C45.5046141,9.58578287 45.4206007,9.78418779 45.3260856,9.97737152 C43.9451146,10.0452469 42.8004315,10.134007 42.8004315,10.2279883 C42.8004315,10.3167484 43.7980911,10.4002873 45.0582927,10.4681626 C44.984781,10.5830286 44.91652,10.6926735 44.8377574,10.8023183 C44.753744,10.9171843 44.6697306,11.0320503 44.5752154,11.1469163 C43.7875894,11.2043493 43.2467529,11.2722247 43.2467529,11.3453212 C43.2467529,11.4079754 43.6353151,11.4654084 44.22866,11.5176202 C43.9031079,11.8361123 43.5197966,12.1389409 43.0629735,12.4 C43.0629735,12.4 42.5273878,11.940536 42.0915681,11.4079754 C41.6977551,10.9328478 40.8628715,9.67454296 40.6685904,9.39782031 C40.4743093,9.11587648 40.3430383,9.03755875 40.1120014,9.11587648 C39.8074526,9.2255213 39.4451447,9.27773313 39.334877,9.27773313 C39.2246094,9.27773313 39.1668502,9.23596367 39.3506296,9.16286712 C39.534409,9.08977057 40.2590249,8.75039374 40.616082,8.04553416 C41.0203967,7.25191448 40.6633396,6.15546625 40.6633396,6.15546625 C40.5268177,6.74023864 40.222269,6.95952829 40.222269,6.95952829 C40.322035,6.41652535 40.2117673,5.92051306 39.9439745,5.57591504 L39.7917001,6.26511107 C39.7917001,6.26511107 39.697185,6.25988989 39.466148,6.45829481 C39.2351111,6.65147855 39.1668502,6.93864356 39.1668502,6.93864356 C39.3506296,7.01174011 39.5711648,6.82899874 39.5711648,6.82899874 C39.2876195,7.87845633 38.8833048,8.72950901 38.5892577,9.18375185 C38.2952107,9.63277351 38.0536721,9.80507251 37.7543742,9.9251597 C37.5075847,10.0243622 37.4235712,9.90949616 37.4235712,9.90949616 C37.2082868,9.7215336 37.0455108,9.54923459 36.872233,9.34560849 C36.872233,9.34560849 36.8564805,9.31950258 36.9037381,9.32472376 C37.0245074,9.32472376 37.2397918,9.12109766 37.2870494,9.03233757 C37.3395578,8.93313511 37.334307,8.86003856 37.3080528,8.85481738 C37.2817986,8.8495962 37.234541,8.92791393 37.003504,9.07410702 C36.7724671,9.22030012 36.6621994,9.12109766 36.5834368,9.03755875 C36.5256776,8.97490457 36.5834368,8.89136565 36.6201927,8.84437501 C36.6569486,8.79738438 37.8856452,6.51572781 41.141166,4.11920525 C45.410099,0.976053642 48.135285,0.130222148 48.2875594,0.0675679632 C48.3925762,0.0257985067 48.5606031,-0.0264133139 48.5973589,0.0153561426 C48.6393657,0.0571255991 48.660369,0.0936738735 48.6551182,0.145885694 C48.6498673,0.198097515 48.6236131,0.224203425 48.4240812,0.307742338 C46.7858191,1.02826546 44.8745133,2.22391616 43.7875894,2.91833337 C42.453876,3.56575995 41.1779219,4.48990917 41.1306643,4.5107939 C41.0308984,4.57344809 41.1044101,4.66742936 41.1674202,4.62565991 C43.4252815,3.13240184 46.066454,2.11427133 48.9911719,1.28410338 C49.1329446,1.24233393 49.2064564,1.24233393 49.2327106,1.27366102 C49.2589648,1.30498811 49.2694665,1.34675757 49.2747173,1.38852703 C49.2799681,1.44073885 49.2327106,1.47206594 49.1171921,1.51905658 C45.9771897,2.678159 43.6615693,3.75894368 42.1755815,4.75096828 C42.1755815,4.75096828 42.0233072,4.84494955 42.0180563,4.94937319 C42.0180563,4.99114265 42.1020698,4.99636383 42.1020698,4.99636383 C42.847689,5.0068062 43.8453487,5.05379683 44.3179243,5.07990275 C44.3179243,5.07990275 44.2496633,5.32007712 43.7980911,5.51326086 C43.4462848,5.65945395 43.1207327,5.63856923 42.8004315,5.63856923 C42.7269197,5.63856923 42.6691605,5.70644459 42.7269197,5.78476232 C42.7584248,5.81608942 43.441034,6.90731647 45.9246813,7.15793321" id="path4280"></path>
        </g>
    </g>
</svg>